<svg xmlns="http://www.w3.org/2000/svg" width="128.511" height="17.981" viewBox="0 0 128.511 17.981">
  <g id="Group_40" data-name="Group 40" transform="translate(-89.89 -72)">
    <path id="Path_377" data-name="Path 377" d="M104.528,90.423h-.43L91.153,75.955V90.423H89.89V73.2h.43l12.945,14.408V73.2h1.263Z" transform="translate(0 -0.842)"/>
    <path id="Path_378" data-name="Path 378" d="M161.37,81.026c0-5.146,3.445-9.026,8.785-9.026s8.811,3.88,8.811,9.026c0,5.05-3.474,8.955-8.811,8.955S161.37,86.077,161.37,81.026Zm16.3,0c0-4.25-2.755-7.832-7.519-7.832s-7.519,3.582-7.519,7.835c0,4.161,2.782,7.761,7.519,7.761s7.522-3.6,7.522-7.764Z" transform="translate(-50.144 0)"/>
    <path id="Path_379" data-name="Path 379" d="M257.984,76.071l-6.743,7.576h-.4l-6.716-7.522v14.3H242.86V73.2h.4l7.761,8.811,7.823-8.811h.4V90.423h-1.266Z" transform="translate(-107.31 -0.842)"/>
    <path id="Path_380" data-name="Path 380" d="M378.374,73.2h13.775v1.176h-6.268V90.423h-1.263V74.376H378.35Z" transform="translate(-202.358 -0.842)"/>
    <path id="Path_381" data-name="Path 381" d="M445.4,90.423H444.14V73.2H445.4Z" transform="translate(-248.511 -0.842)"/>
    <path id="Path_382" data-name="Path 382" d="M485.628,87.686a7.853,7.853,0,0,1-5.883,2.3,8.991,8.991,0,0,1,0-17.981,7.893,7.893,0,0,1,5.883,2.269l-.725.931a7.179,7.179,0,0,0-5.158-2.006,7.8,7.8,0,0,0,0,15.6,7.164,7.164,0,0,0,5.158-2.08Z" transform="translate(-267.227 0)"/>
    <path id="Path_383" data-name="Path 383" d="M324.792,72.34l-8.4,17.509h16.832ZM320.118,84.3l7.91-3.086,3.677,7.638H317.933Z" transform="translate(-158.892 -0.238)"/>
  </g>
</svg>
