<?xml version="1.0" encoding="utf-8"?>
<!-- Generator: Adobe Illustrator 24.0.0, SVG Export Plug-In . SVG Version: 6.00 Build 0)  -->
<svg version="1.1" id="Layer_1" xmlns="http://www.w3.org/2000/svg" xmlns:xlink="http://www.w3.org/1999/xlink" x="0px" y="0px"
	 viewBox="0 0 144 144" style="enable-background:new 0 0 144 144;" xml:space="preserve">
<style type="text/css">
	.st0{fill:#02822F;}
	.st1{fill:#FFFFFF;}
	.st2{fill:#343434;}
</style>
<g>
	<g>
		<circle class="st0" cx="72.48" cy="73.17" r="47.09"/>
		<circle class="st1" cx="72.48" cy="73.17" r="41.25"/>
	</g>
	<g>
		<path class="st0" d="M80.17,61.2c-0.5,0.48-1.01,0.95-1.49,1.45c-0.91,0.94-1.25,2.05-0.83,3.31c0.75,2.23,3.53,2.87,5.21,1.2
			c1.21-1.2,2.43-2.38,3.6-3.62c0.56-0.59,1.24-0.47,1.91-0.48c0.16,0,0.18,0.13,0.19,0.25c0.02,0.17,0.03,0.33,0.03,0.5
			c0,4.26,0.01,8.51,0.01,12.77c0,1.72-0.99,2.72-2.69,2.72c-10.17,0-20.34,0-30.5,0c-1.74,0-2.73-0.99-2.73-2.73
			c0.01-4.32,0.02-8.65,0.04-12.97c0.01-1.46,1.01-2.48,2.48-2.52c0.17,0,0.33,0,0.5,0c7.85,0,15.69,0,23.54,0c0.22,0,0.43,0,0.65,0
			C80.11,61.11,80.14,61.16,80.17,61.2z M69.36,67.57c0-0.67,0.43-1.22,1.11-1.45c0.57-0.19,1.22,0.04,1.6,0.55
			c0.17,0.24,0.23,0.52,0.31,0.79c0.2,0.65,0.66,0.94,1.23,0.76c0.56-0.18,0.8-0.7,0.59-1.34c-0.36-1.08-1.13-1.76-2.18-2.11
			c-0.34-0.11-0.59-0.19-0.59-0.62c0-0.31-0.24-0.5-0.57-0.51c-0.34,0-0.58,0.18-0.59,0.49c-0.01,0.42-0.25,0.51-0.59,0.64
			c-1.21,0.45-2.03,1.26-2.19,2.6c-0.16,1.41,0.38,2.47,1.64,3.15c0.44,0.24,0.91,0.4,1.39,0.57c0.46,0.16,0.94,0.24,1.36,0.48
			c0.61,0.36,0.85,0.81,0.75,1.44c-0.1,0.61-0.57,1.12-1.2,1.26c-0.76,0.16-1.42,0-1.94-0.62c-0.24-0.29-0.36-0.64-0.5-0.97
			c-0.14-0.32-0.37-0.5-0.72-0.53c-0.81-0.06-1.3,0.58-1.01,1.39c0.41,1.12,1.21,1.83,2.37,2.09c0.37,0.08,0.64,0.16,0.65,0.63
			c0.01,0.31,0.28,0.5,0.6,0.48c0.29-0.01,0.55-0.19,0.55-0.48c0-0.49,0.3-0.53,0.65-0.61c1.44-0.34,2.39-1.45,2.44-2.8
			c0.06-1.65-0.63-2.64-2.2-3.15c-0.57-0.18-1.15-0.34-1.72-0.54C69.79,68.89,69.36,68.3,69.36,67.57z"/>
		<path class="st2" d="M59.3,92.41c-3.32,0-6.64-0.01-9.97,0.01c-0.43,0-0.51-0.12-0.51-0.52c0.02-2.5,0.02-5.01,0-7.51
			c0-0.37,0.08-0.48,0.46-0.47c4.11,0.02,8.21,0.02,12.32,0.04c1.06,0,1.79,0.62,1.93,1.58c0.11,0.8-0.42,1.62-1.23,1.9
			c-0.23,0.08-0.46,0.08-0.69,0.08c-0.67,0-1.34-0.01-2,0.01c-0.4,0.01-0.68,0.22-0.68,0.64c0,0.42,0.25,0.64,0.67,0.64
			c3.1,0,6.21,0,9.31-0.02c0.59,0,1.09-0.29,1.51-0.7c0.5-0.49,0.99-0.99,1.49-1.48c0.8-0.79,1.92-0.84,2.64-0.12
			c0.74,0.73,0.71,1.81-0.09,2.63c-0.61,0.62-1.22,1.24-1.84,1.84c-1,0.98-2.21,1.45-3.61,1.45C65.78,92.41,62.54,92.41,59.3,92.41z
			"/>
		<path class="st2" d="M83.36,59.76c-3.46,0-6.79,0-10.2,0c1.02-1.03,1.99-2.01,2.97-2.97c0.47-0.47,0.91-0.97,1.48-1.35
			c0.8-0.53,1.67-0.83,2.63-0.83c5.16,0,10.32,0,15.47-0.01c0.37,0,0.43,0.11,0.43,0.45c-0.02,2.09-0.02,4.17,0,6.26
			c0,0.37-0.08,0.47-0.46,0.47c-2.57-0.02-5.14,0-7.71-0.02c-0.91-0.01-1.64,0.29-2.28,0.94c-1.16,1.2-2.35,2.37-3.54,3.54
			c-0.7,0.69-1.66,0.76-2.42,0.22c-0.71-0.51-0.98-1.47-0.62-2.27c0.13-0.3,0.35-0.52,0.58-0.75c1.15-1.14,2.29-2.29,3.44-3.43
			C83.18,59.97,83.23,59.91,83.36,59.76z"/>
		<path class="st2" d="M47.63,88.18c0,1.93-0.01,3.87,0.01,5.8c0,0.35-0.09,0.45-0.44,0.44c-1.1-0.02-2.2,0-3.3-0.01
			c-0.66,0-0.94-0.29-0.94-0.95c0-3.54-0.01-7.07,0-10.61c0-0.61,0.28-0.92,0.87-0.93c1.17-0.02,2.34,0.01,3.5-0.01
			c0.35-0.01,0.31,0.2,0.31,0.42C47.63,84.28,47.63,86.23,47.63,88.18z"/>
		<path class="st2" d="M97.33,58.17c0-1.93,0.01-3.87-0.01-5.8c0-0.34,0.07-0.45,0.43-0.45c1.1,0.02,2.2,0,3.3,0.01
			c0.65,0,0.95,0.29,0.95,0.95c0.01,3.54,0.01,7.07,0,10.61c0,0.65-0.29,0.93-0.96,0.94c-1.08,0.01-2.17-0.01-3.25,0.01
			c-0.37,0.01-0.48-0.08-0.47-0.46C97.34,62.04,97.33,60.11,97.33,58.17z"/>
	</g>
</g>
</svg>
