<svg xmlns="http://www.w3.org/2000/svg" width="517.038" height="59.939" viewBox="0 0 517.038 59.939"><g transform="translate(0 0)"><path d="M546.284,653.84h7.734l-16.058,32.774h-6.949l-2.968-22.13-10.4,22.13h-7.777l-4.022-32.774h7.08l2.622,22.625,10.618-22.625h6.885l-.13.131,3.047,22.72Z" transform="translate(-505.841 -639.824)" fill="#fff"/><path d="M607.351,652.581q7.34,0,11.438,5.048t2.721,12.256q-.59,2.361-.787,2.95H594.635a7.154,7.154,0,0,0,2.49,5.768,9.78,9.78,0,0,0,6.358,1.967,11.354,11.354,0,0,0,9.242-4.13l5.178,3.933q-5.376,6.686-15.011,6.686-7.932,0-12.126-5.178t-2.95-12.717a19.518,19.518,0,0,1,6.751-11.9A19.131,19.131,0,0,1,607.351,652.581ZM595.618,667h19.206q.064-4.063-2.13-6.031a8.373,8.373,0,0,0-5.8-1.966,11.489,11.489,0,0,0-6.849,2.13A12.553,12.553,0,0,0,595.618,667Z" transform="translate(-532.234 -639.417)" fill="#fff"/><path d="M713.153,652.581a12.7,12.7,0,0,1,10.816,5.342,15.976,15.976,0,0,1,2.753,12.553,19.952,19.952,0,0,1-6.326,11.9,17.3,17.3,0,0,1-12.028,4.687q-7.992,0-11.25-6.319l-3.251,18.59-7.189-.007,8.093-45.89h7.122l-.734,4.2A15.837,15.837,0,0,1,713.153,652.581Zm6.514,17.371a9.128,9.128,0,0,0-1.639-7.6,8.328,8.328,0,0,0-6.883-3.015,12.295,12.295,0,0,0-11.93,9.4l-.337,1.935q-.459,4.5,2.134,7.068a9.138,9.138,0,0,0,6.724,2.572,11.894,11.894,0,0,0,7.669-2.752A12.069,12.069,0,0,0,719.667,669.952Z" transform="translate(-564.265 -639.417)" fill="#fff"/><path d="M794.993,653.433h7.121l-5.725,32.774h-7.122l.677-3.87a15.975,15.975,0,0,1-12,4.722,12.645,12.645,0,0,1-10.978-5.407,15.875,15.875,0,0,1-2.524-12.553,20.074,20.074,0,0,1,6.522-11.93,17.749,17.749,0,0,1,12.094-4.588q7.655,0,11.006,6.143Zm-15,26.875a12.33,12.33,0,0,0,11.93-9.326l.326-1.872q.458-4.528-2.1-7.153a9,9,0,0,0-6.751-2.625,11.893,11.893,0,0,0-7.669,2.752,12.017,12.017,0,0,0-4.261,7.538,9.213,9.213,0,0,0,1.639,7.636A8.285,8.285,0,0,0,780,680.308Z" transform="translate(-589.282 -639.417)" fill="#fff"/><path d="M862.5,653.84h7.865l-18.482,33.9q-6.935,12.717-18.143,11.988l1.18-6.62a8.254,8.254,0,0,0,5.375-1.311,14.916,14.916,0,0,0,4.13-4.982l.575-.917-8.063-32.053h7.232l5.6,24.159Z" transform="translate(-611.776 -639.824)" fill="#fff"/><path d="M906.712,646.494q1.186-6.947,5.562-10.356t11.653-2.949l-1.181,6.817q-7.668-.722-8.914,6.495l-.114.649h7.735l-1.179,6.817h-7.759l-4.576,25.957h-7.122l4.577-25.957h-4.982l1.18-6.817h5Z" transform="translate(-633.318 -633.135)" fill="#fff"/><path d="M954.769,687.06q-7.735,0-11.995-5.277t-2.819-12.815a19.349,19.349,0,0,1,7.014-11.831,20.062,20.062,0,0,1,12.979-4.556,13.9,13.9,0,0,1,11.471,5.244q4.194,5.244,2.884,12.651a19.992,19.992,0,0,1-19.533,16.583Zm.525-6.882a11.846,11.846,0,0,0,7.7-2.819,12.272,12.272,0,0,0,4.294-7.669q.851-4.652-1.639-7.439a8.525,8.525,0,0,0-6.686-2.786,11.8,11.8,0,0,0-7.669,2.786,12.156,12.156,0,0,0-4.261,7.571q-.785,4.785,1.639,7.571A8.321,8.321,0,0,0,955.293,680.177Z" transform="translate(-645.975 -639.417)" fill="#fff"/><path d="M1019.9,658.458a12.245,12.245,0,0,1,11.078-5.493l-1.377,7.669a12.455,12.455,0,0,0-4.588.46,9.917,9.917,0,0,0-4.229,2.693,10.6,10.6,0,0,0-2.721,5.187l-3.03,17.355h-7.123l5.725-32.774h7.123Z" transform="translate(-668.048 -639.539)" fill="#fff"/><path d="M1115.514,653.84h7.866l-18.483,33.9q-6.935,12.717-18.144,11.988l1.18-6.62a8.255,8.255,0,0,0,5.375-1.311,14.917,14.917,0,0,0,4.13-4.982l.575-.917-8.063-32.053h7.232l5.6,24.159Z" transform="translate(-693.521 -639.824)" fill="#fff"/><path d="M1165.087,687.06q-7.736,0-12-5.277t-2.819-12.815a19.354,19.354,0,0,1,7.013-11.831,20.063,20.063,0,0,1,12.979-4.556,13.9,13.9,0,0,1,11.47,5.244q4.2,5.244,2.885,12.651a19.994,19.994,0,0,1-19.533,16.583Zm.524-6.882a11.846,11.846,0,0,0,7.7-2.819,12.268,12.268,0,0,0,4.293-7.669q.852-4.652-1.639-7.439a8.525,8.525,0,0,0-6.686-2.786,11.8,11.8,0,0,0-7.669,2.786,12.153,12.153,0,0,0-4.26,7.571q-.786,4.785,1.639,7.571A8.318,8.318,0,0,0,1165.611,680.177Z" transform="translate(-713.924 -639.417)" fill="#fff"/><path d="M1246.465,653.84h7.123l-5.726,32.774h-7.121l.687-3.935a13.432,13.432,0,0,1-10.672,4.787q-5.631,0-8.611-3.638t-1.931-9.868l3.548-20.121h7.122l-3.421,19.407q-.657,3.734.944,5.667t5.059,1.932a9.64,9.64,0,0,0,6.2-2.138,10.787,10.787,0,0,0,3.589-6.481Z" transform="translate(-736.55 -639.824)" fill="#fff"/></g></svg>