<svg xmlns="http://www.w3.org/2000/svg" width="20.01" height="11.392" viewBox="0 0 20.01 11.392"><path d="M2977.884,181.46a1.082,1.082,0,0,0,1.073-1.059V166.463l-.081-2.041.923.964,2.05,2.2a.992.992,0,0,0,.732.326.949.949,0,0,0,.99-.906c0-.02,0-.039,0-.058a.951.951,0,0,0-.312-.706l-4.589-4.424a1.029,1.029,0,0,0-1.575,0l-4.59,4.424a.96.96,0,0,0-.326.706.944.944,0,0,0,.926.964h.052a1,1,0,0,0,.746-.326l2.064-2.2.922-.964-.093,2.041V180.4A1.093,1.093,0,0,0,2977.884,181.46Z" transform="translate(181.461 -2972.18) rotate(90)" fill="#fff"/></svg>